<svg width="445" height="63" viewBox="0 0 445 63" fill="none" xmlns="http://www.w3.org/2000/svg">
<path d="M23.3267 33.7442L15.0108 35.8878L14.7151 34.816C14.4564 33.7811 13.4954 33.2267 12.7562 33.4485L10.1321 34.1137C9.09721 34.3725 8.54281 35.3334 8.80153 36.3313L9.13417 37.6619C10.4647 42.7993 23.8811 36.0356 26.3574 45.5712L27.4292 49.7477C28.4271 53.6284 26.1356 57.5462 22.2548 58.5441L13.9389 60.6877C10.0582 61.6856 6.14043 59.3941 5.14252 55.5134L4.40333 52.6305L12.4605 50.5608L12.7932 51.8913C12.978 52.6305 13.9389 53.2588 14.9738 53.0001L17.5979 52.3349C18.3371 52.1501 18.8915 51.1521 18.7067 50.376L18.3741 49.0454C17.1914 44.4255 4.03373 51.1521 1.4096 41.0622L0.263851 36.664C-0.807979 32.5245 1.48352 28.6068 5.36428 27.6088L13.6802 25.4652C17.561 24.4673 21.4787 26.7588 22.5505 30.8983L23.2897 33.7442H23.3267Z" fill="#FFE800"/>
<path d="M24.1768 22.8411L39.552 19.4038C43.4327 18.5168 47.2765 20.9561 48.2375 25.1326L49.7528 31.8962C50.6399 35.777 48.2005 39.6208 44.2828 40.5078L36.9648 42.134L39.6998 54.4046L31.6426 56.2156L24.1768 22.8411ZM39.8846 34.3725C40.9195 34.1507 41.5478 33.1528 41.326 32.118L40.5499 28.7177C40.3281 27.6828 39.3302 27.1284 38.2953 27.3502L33.8602 28.3481L35.4495 35.3704L39.8846 34.3725Z" fill="#FFE800"/>
<path d="M67.4196 48.6019L66.0151 44.5364L61.1734 45.4604L61.3951 49.7846L53.301 51.3739L52.8205 16.6318L63.0583 14.636L75.6246 47.0496L67.4565 48.6389L67.4196 48.6019ZM63.5388 37.6249L60.4711 28.8285L60.8777 38.1424L63.5388 37.6249Z" fill="#FFE800"/>
<path d="M100.461 42.9471L91.2215 44.4625L81.9816 26.0196L85.1232 45.4604L77.4725 46.717L72.0025 12.9359L81.2424 11.4205L90.4823 29.8634L87.3408 10.4226L94.9914 9.16599L100.461 42.9471Z" fill="#FFE800"/>
<path d="M121.307 5.72876L114.987 21.6584L125.705 39.6577L117.167 40.7665L111.217 30.196L110.108 33.5963L111.143 41.5796L102.901 42.6514L98.5026 8.72249L106.745 7.65066L108.371 20.143L112.806 6.87451L121.344 5.76572L121.307 5.72876Z" fill="#FFE800"/>
<path d="M124.855 5.3222L140.045 3.84381C144 3.47422 147.548 6.35707 147.955 10.6074L148.435 15.3383C148.731 18.2581 147.068 20.5865 145.441 20.7713C147.881 20.5496 149.618 21.991 150.024 25.9457L150.431 29.9743C150.801 33.929 147.918 37.4771 143.889 37.8467L128.218 39.362L124.892 5.3222H124.855ZM138.123 17.1862C139.158 17.0754 139.934 16.1883 139.824 15.1165L139.639 13.2316C139.528 12.1967 138.641 11.4945 137.865 11.5684L133.91 11.938L134.464 17.5189L138.16 17.1493L138.123 17.1862ZM140.23 30.9352C141.339 30.8244 142.041 29.9373 141.967 29.1612L141.671 25.9457C141.561 24.8369 140.452 24.1716 139.602 24.2455L135.13 24.6891L135.795 31.3787L140.267 30.9352H140.23Z" fill="#FFE800"/>
<path d="M166.324 36.0726L165.436 31.8592L160.521 32.1919L160.188 36.4792L151.946 37.0336L155.716 2.4763L166.102 1.77407L174.602 35.4813L166.324 36.0357V36.0726ZM163.81 24.6891L161.851 15.597L161.112 24.8739L163.81 24.6891Z" fill="#FFE800"/>
<path d="M175.194 1.21967L190.421 0.628318C194.413 0.480479 197.739 3.54813 197.924 7.83545L198.109 12.6032C198.22 15.5231 196.409 17.7776 194.819 17.8515C197.259 17.7406 198.922 19.2929 199.07 23.2846L199.218 27.3132C199.365 31.3048 196.298 34.6312 192.232 34.779L176.487 35.4073L175.157 1.21967H175.194ZM187.723 13.8229C188.758 13.786 189.571 12.9359 189.534 11.864L189.46 9.97911C189.423 8.94424 188.573 8.16809 187.797 8.20505L183.805 8.35288L184.027 13.9338L187.723 13.786V13.8229ZM189.054 27.6828C190.162 27.6458 190.902 26.7957 190.865 26.0196L190.754 22.8041C190.717 21.6953 189.645 20.9561 188.795 20.9931L184.323 21.1779L184.582 27.8676L189.054 27.6828Z" fill="#FFE800"/>
<path d="M208.236 0.184798L211.488 11.3466L214.408 0.110879L222.724 0L215.776 20.106L215.96 34.2985L207.644 34.4094L207.46 20.2169L199.994 0.258717L208.236 0.147839V0.184798Z" fill="#FFE800"/>
<path d="M247.709 7.90939L240.797 7.79851L240.317 34.5203L232.001 34.3725L232.481 7.65068L225.274 7.5398L225.422 0.0739479L247.857 0.480504L247.709 7.94635V7.90939Z" fill="#FFE800"/>
<path d="M260.349 22.6193L258.575 22.5454L257.983 35.1117L249.446 34.7051L251.072 0.554386L266.854 1.29358C270.845 1.47838 273.913 4.84171 273.691 9.12902L273.359 16.0405C273.211 19.0712 271.252 21.5844 268.554 22.5454L272.915 35.8509L264.673 35.4443L260.349 22.6563V22.6193ZM263.195 15.8187C264.23 15.8557 265.08 15.0795 265.117 14.0077L265.301 10.5335C265.338 9.49862 264.599 8.68551 263.564 8.61159L259.24 8.38983L258.907 15.597L263.232 15.8187H263.195Z" fill="#FFE800"/>
<path d="M293.021 3.0307L301.3 3.69598L299.156 30.6026C298.824 34.5942 295.387 37.551 291.358 37.2184L282.857 36.5531C278.866 36.2205 275.909 32.7832 276.241 28.7916L278.385 1.88495L286.627 2.55023L284.631 27.8676C284.557 28.6437 285.334 29.5308 286.368 29.6047L289.03 29.8264C290.138 29.9004 290.988 29.1612 291.025 28.385L293.021 3.06766V3.0307Z" fill="#FFE800"/>
<path d="M320.926 40.2491L323.143 20.9192L316.565 34.0768L315.234 33.929L311.76 19.4777L309.542 38.9924L301.337 38.0684L305.218 4.06557L314.458 5.1374L317.599 20.2909L323.772 6.20923L333.085 7.28106L329.205 41.2839L320.926 40.3599V40.2491Z" fill="#FFE800"/>
<path d="M336.671 7.72457L352.231 10.053C356.185 10.6444 358.883 14.3034 358.255 18.5168L357.22 25.3543C356.629 29.309 352.97 32.0071 349.015 31.4157L341.623 30.3069L339.775 42.7623L331.607 41.5426L336.634 7.72457H336.671ZM347.167 24.1347C348.202 24.2825 349.163 23.5803 349.311 22.5454L349.828 19.1081C349.976 18.0733 349.274 17.1862 348.239 17.0384L343.73 16.3731L342.658 23.5063L347.167 24.1716V24.1347Z" fill="#FFE800"/>
<path d="M374.998 38.2902L383.129 39.7686L382.574 42.7253C381.835 46.6431 378.176 49.2302 374.185 48.491L365.499 46.9018C361.581 46.1626 358.994 42.4297 359.733 38.5119L363.282 19.3299C364.058 15.1165 367.791 12.5663 371.708 13.2685L380.394 14.8578C384.385 15.597 386.899 19.3299 386.123 23.5063L385.605 26.3892L377.474 24.9108L377.659 23.802C377.844 22.7671 376.957 21.8062 375.848 21.6214L373.224 21.1409C372.448 20.9931 371.487 21.6214 371.302 22.6563L368.382 38.475C368.234 39.2511 368.899 40.2121 369.676 40.3599L372.3 40.8404C373.408 41.0252 374.591 40.3969 374.702 39.6577L374.961 38.2902H374.998Z" fill="#FFE800"/>
<path d="M350.186 45.0666C352.948 45.0666 355.186 42.828 355.186 40.0666C355.186 37.3052 352.948 35.0666 350.186 35.0666C347.425 35.0666 345.186 37.3052 345.186 40.0666C345.186 42.828 347.425 45.0666 350.186 45.0666Z" fill="#FFE800"/>
<path d="M406.376 20.2169C410.331 21.067 412.734 24.9108 411.81 29.0503L407.67 48.1215C406.82 52.0392 403.05 54.4785 399.095 53.6284L390.743 51.8174C386.825 50.9673 384.385 47.1235 385.236 43.2428L389.375 24.1716C390.299 19.9952 394.106 17.5558 398.024 18.4059L406.376 20.2169ZM403.346 29.0872C403.568 28.0524 402.976 27.1284 401.904 26.9066L399.317 26.3522C398.282 26.1305 397.321 26.7218 397.1 27.7567L393.662 43.4645C393.515 44.2407 394.143 45.2016 395.178 45.4234L397.765 45.9778C398.837 46.1996 399.798 45.5712 399.945 44.7951L403.383 29.0872H403.346Z" fill="#FFE800"/>
<path d="M427.628 60.5769L432.47 41.7275L424.154 53.8502L422.86 53.5176L421.382 38.7337L416.503 57.731L408.483 55.6982L416.984 22.5454L426.002 24.8369L427.037 40.2491L435.094 27.1284L444.186 29.4569L435.685 62.6097L427.628 60.5399V60.5769Z" fill="#FFE800"/>
</svg>
